<svg width="80" height="80" viewBox="0 0 80 80" fill="none" xmlns="http://www.w3.org/2000/svg">
  <circle cx="40" cy="40" r="40" fill="#1E2F23"/>
  <path d="M58 40C58 49.9411 49.9411 58 40 58C30.0589 58 22 49.9411 22 40C22 30.0589 30.0589 22 40 22C49.9411 22 58 30.0589 58 40Z" fill="#3A7D44"/>
  <path d="M50 40C50 45.5228 45.5228 50 40 50C34.4772 50 30 45.5228 30 40C30 34.4772 34.4772 30 40 30C45.5228 30 50 34.4772 50 40Z" fill="#1E2F23"/>
  <rect x="22" y="38" width="36" height="4" fill="#FBB13C"/>
  <rect x="38" y="58" width="36" height="4" transform="rotate(-90 38 58)" fill="#FBB13C"/>
</svg> 